<?xml version="1.0" encoding="utf-8"?>
<!-- Generator: Adobe Illustrator 19.0.0, SVG Export Plug-In . SVG Version: 6.00 Build 0)  -->
<svg version="1.1" id="Layer_1" xmlns="http://www.w3.org/2000/svg" xmlns:xlink="http://www.w3.org/1999/xlink" x="0px" y="0px"
	 viewBox="0 0 100 100" style="enable-background:new 0 0 100 100;" xml:space="preserve">
<style type="text/css">
	.st0{fill:#FDC2B1;}
	.st1{fill:#FFFFFF;}
</style>
<circle id="XMLID_1_" class="st0" cx="50" cy="50" r="50"/>
<path id="XMLID_5_" class="st1" d="M49.9,30.2c1.8-1.5,3.6-3,5.4-4.3c2.6-2,5.5-3.6,8.7-4.4c2.6-0.7,5.3-0.7,7.9-0.4
	c2.8,0.3,5.4,1,7.9,2.4c4.3,2.4,7.2,6,8.5,10.8c1.2,4.4,1.4,8.8-0.1,13.2c-1.1,3.3-2.8,6.2-4.9,8.9c-2.3,3-5.1,5.6-7.9,8.3
	C67.6,72.2,59.8,79.7,52,87.2c-0.8,0.8-1.7,1.1-2.7,0.8c-0.5-0.2-1-0.5-1.3-0.8c-8.6-8.3-17.2-16.6-25.9-24.9
	c-2.9-2.8-5.5-5.7-7.6-9.1c-2.7-4.3-4.1-9-3.6-14.1c0.3-3.5,1.2-6.9,3.2-9.9c2.4-3.6,5.8-6,9.9-7.2c3.3-1,6.8-1.3,10.2-0.9
	c3.1,0.4,5.8,1.6,8.4,3.3C45.1,26.1,47.6,27.9,49.9,30.2C49.9,30.2,49.9,30.2,49.9,30.2z M50,81.4c0.1-0.1,0.3-0.2,0.4-0.3
	C58.2,73.5,66,66,73.8,58.4c2.3-2.2,4.5-4.5,6.3-7.2c3.1-4.5,4.3-9.5,2.9-14.9c-0.7-2.6-1.7-4.9-3.9-6.7c-3.4-2.7-7.4-3.4-11.6-3.2
	c-2.6,0.1-4.8,1.2-7,2.5c-3.2,1.9-5.9,4.4-8.4,7.1c-1.3,1.4-3.2,1.5-4.5,0c-2.1-2.4-4.5-4.4-7.1-6.3c-5-3.6-10.3-4.3-16.1-2.3
	c-2.8,1-5.1,2.7-6.4,5.4c-2.4,5-2.6,10.1-0.1,15.1c1.6,3.4,4,6.3,6.6,8.8c8,7.7,16,15.4,24,23.2C49.1,80.6,49.6,81,50,81.4z"/>
</svg>
