<?xml version="1.0" encoding="utf-8"?>
<!-- Generator: Adobe Illustrator 19.0.0, SVG Export Plug-In . SVG Version: 6.00 Build 0)  -->
<svg version="1.1" id="Layer_1" xmlns="http://www.w3.org/2000/svg" xmlns:xlink="http://www.w3.org/1999/xlink" x="0px" y="0px"
	 viewBox="0 0 100 100" style="enable-background:new 0 0 100 100;" xml:space="preserve">
<style type="text/css">
	.st0{fill:#E9CE81;}
	.st1{fill:#FFFFFF;}
</style>
<circle id="XMLID_1_" class="st0" cx="50" cy="50" r="50"/>
<g id="XMLID_9_">
	<path id="XMLID_11_" class="st1" d="M85.6,21.6c0,18.6,0,37.1,0,55.7c-1,2.4-2.9,3.2-5.5,3.2c-19.9-0.1-39.7-0.1-59.6,0
		c-2.6,0-4.4-0.8-5.5-3.2c0-18.6,0-37.1,0-55.7c1-2.4,2.9-3.2,5.5-3.2c19.9,0.1,39.7,0.1,59.6,0C82.7,18.4,84.5,19.2,85.6,21.6z
		 M19.4,76.2c20.7,0,41.3,0,61.8,0c0-15.5,0-30.9,0-46.3c-20.7,0-41.2,0-61.8,0C19.4,45.3,19.4,60.7,19.4,76.2z M65.8,24.2
		c0-1.5-1.2-2.8-2.7-2.9c-1.5-0.1-2.8,1.1-2.9,2.7c-0.1,1.6,1.2,3,2.8,3C64.5,26.9,65.8,25.7,65.8,24.2z M70.7,26.9
		c1.5,0,2.8-1.2,2.9-2.7c0.1-1.5-1.2-2.8-2.7-2.9c-1.6-0.1-2.9,1.2-3,2.8C68,25.6,69.2,26.9,70.7,26.9z M78.6,21.3
		c-1.5,0-2.8,1.2-2.9,2.7c-0.1,1.5,1.1,2.8,2.7,2.9c1.6,0.1,3-1.2,3-2.8C81.4,22.6,80.1,21.3,78.6,21.3z"/>
	<path id="XMLID_2_" class="st1" d="M36.7,35.9c9.4,5.5,18.5,10.8,28,16.4c-9.4,5.5-18.6,10.9-28,16.4
		C36.7,57.7,36.7,46.9,36.7,35.9z"/>
</g>
</svg>
