<?xml version="1.0" encoding="utf-8"?>
<!-- Generator: Adobe Illustrator 19.0.0, SVG Export Plug-In . SVG Version: 6.00 Build 0)  -->
<svg version="1.1" id="Layer_1" xmlns="http://www.w3.org/2000/svg" xmlns:xlink="http://www.w3.org/1999/xlink" x="0px" y="0px"
	 viewBox="0 0 100 100" style="enable-background:new 0 0 100 100;" xml:space="preserve">
<style type="text/css">
	.st0{fill:#BFD8D2;}
	.st1{fill:#FFFFFF;}
</style>
<circle id="XMLID_1_" class="st0" cx="50" cy="50" r="50"/>
<g id="Layer_2">
	<path id="XMLID_10_" class="st1" d="M15.4,24.4c0.1-0.5,0.2-1,0.4-1.5c1.2-3.4,3.6-5.5,7.1-6c0.4-0.1,0.7,0,1.1,0
		c11.2,0,22.4,0,33.5,0c0.1,0,0.3,0,0.5,0c0,1.3,0,2.6,0,3.9c-0.2,0-0.3,0-0.5,0c-11.2,0-22.5,0-33.7,0c-2.2,0-4,1.5-4.4,3.6
		c-0.1,0.3-0.1,0.6-0.1,0.9c0,17,0,34.1,0,51.1c0,2.7,1.9,4.6,4.6,4.6c17.2,0,34.4,0,51.6,0c2.3,0,4.1-1.4,4.5-3.7
		C80,77,80,76.6,80,76.3c0-11.1,0-22.3,0-33.4c0-0.2,0-0.3,0-0.5c1.2,0,2.3,0,3.4,0c0,0.1,0,0.2,0,0.4c0,11.3,0,22.6,0,33.8
		c0,4.1-2.7,7.5-6.7,8.3c-0.4,0.1-0.9,0.1-1.3,0.2c-17.3,0-34.7,0-52,0c-0.1,0-0.3-0.1-0.4-0.1c-3.5-0.2-6.5-2.7-7.4-6.2
		c-0.1-0.4-0.2-0.9-0.3-1.3C15.4,59.7,15.4,42.1,15.4,24.4z"/>
	<path id="XMLID_17_" class="st1" d="M84.6,27.3c0,0.1-0.1,0.2-0.1,0.4c-0.2,0.8-0.6,1.4-1.1,2c-9.2,9.2-18.5,18.5-27.7,27.7
		c-0.7,0.7-1.6,1.2-2.5,1.7c-5,2.7-10,5.5-15.1,8.1c-1.2,0.6-2.6,0.8-4,0.6c-1-0.2-1.6-0.9-1.8-2.1c-0.2-1.1,0-2.2,0.5-3.2
		c2-4.5,4-8.9,6.1-13.4c0.7-1.4,1.5-2.8,2.3-4.2c0.3-0.5,0.6-0.9,1-1.3c9-8.9,18.1-17.8,27.1-26.6c0.8-0.8,1.7-1.4,2.8-1.7
		c0.2,0,0.4-0.1,0.5-0.1c0.1,0,0.2,0,0.4,0c0.9,0.1,1.7,0.4,2.3,1.1c2.7,2.5,5.3,5,8,7.4c0.5,0.5,0.8,1,1,1.7c0.1,0.3,0.2,0.7,0.3,1
		C84.6,26.6,84.6,27,84.6,27.3z M52.6,54.5c6.2-6.2,12.4-12.4,18.6-18.6c-2.6-2.4-5.2-4.8-7.8-7.3c-6.2,6-12.4,12.1-18.6,18.1
		C47.4,49.3,50,51.9,52.6,54.5z M74.1,32.5c1.5-1.5,3-3,4.5-4.5c0.3-0.3,0.4-0.7,0.4-1.1c-0.1-0.8-0.5-1.4-1-1.9
		c-1.4-1.4-2.8-2.8-4.2-4.2c-1-1-2.3-0.9-3.2,0c-1.3,1.3-2.7,2.7-4,4c-0.1,0.1-0.1,0.1-0.2,0.2C68.9,27.6,71.5,30.1,74.1,32.5z
		 M43.3,50.2c-0.1,0.1-0.2,0.2-0.2,0.3c-1.3,2-2.5,4.1-3.8,6.1c-1.1,1.8-2.1,3.7-3,5.6c-0.1,0.3-0.3,0.6-0.3,0.9
		c-0.2,0.7,0.2,1.1,0.9,0.9c0.6-0.2,1.1-0.4,1.6-0.7c3.3-2.2,6.6-4.4,9.9-6.6c0.1-0.1,0.2-0.1,0.3-0.2
		C46.9,54.4,45.1,52.3,43.3,50.2z"/>
</g>
</svg>
